<svg xmlns="http://www.w3.org/2000/svg" width="24" height="24" viewBox="0 0 24 24" fill="#FFFFFF"><path d="M12 0C5.372 0 0 5.373 0 12s5.372 12 12 12 12-5.373 12-12S18.628 0 12 0zm9.885 11.44c-2.575-.42-4.943-.444-7.103-.072a42.153 42.153 0 0 0-.767-1.68c2.31-1 4.165-2.358 5.548-4.082a9.863 9.863 0 0 1 2.322 5.835zm-3.842-7.28c-1.205 1.553-2.868 2.782-4.986 3.68A46.287 46.287 0 0 0 9.57 2.4 9.894 9.894 0 0 1 12 2.088a9.86 9.86 0 0 1 6.043 2.072zM7.527 3.165a44.59 44.59 0 0 1 3.537 5.38c-2.43.716-5.33 1.083-8.684 1.106a9.93 9.93 0 0 1 5.147-6.486zM2.087 12c0-.086.01-.17.013-.256 3.85-.005 7.17-.448 9.95-1.322.233.475.456.952.67 1.432-3.38 1.057-6.165 3.222-8.337 6.48A9.865 9.865 0 0 1 2.087 12zm3.83 7.81c1.968-3.088 4.48-5.098 7.597-6.027.928 2.42 1.61 4.91 2.043 7.46-3.35 1.29-6.953.666-9.64-1.433zm11.585.43a41.098 41.098 0 0 0-1.92-6.897c1.876-.265 3.94-.196 6.2.196a9.923 9.923 0 0 1-4.28 6.7z"/></svg>